<?xml version="1.0" standalone="no"?>
<!DOCTYPE svg PUBLIC "-//W3C//DTD SVG 20010904//EN"
 "http://www.w3.org/TR/2001/REC-SVG-20010904/DTD/svg10.dtd">
<svg version="1.0" xmlns="http://www.w3.org/2000/svg"
 width="110.000000pt" height="110.000000pt" viewBox="0 0 110.000000 110.000000"
 preserveAspectRatio="xMidYMid meet">
<metadata>
Created by potrace 1.14, written by Peter Selinger 2001-2017
</metadata>
<g transform="translate(0.000000,110.000000) scale(0.100000,-0.100000)"
fill="#000000" stroke="none">
<path d="M458 1031 c12 -7 62 -4 62 5 0 2 -17 4 -37 4 -24 0 -33 -3 -25 -9z"/>
<path d="M598 1033 c7 -3 16 -2 19 1 4 3 -2 6 -13 5 -11 0 -14 -3 -6 -6z"/>
<path d="M420 1019 c0 -5 5 -7 10 -4 6 3 10 8 10 11 0 2 -4 4 -10 4 -5 0 -10
-5 -10 -11z"/>
<path d="M610 1004 c0 -7 -7 -14 -15 -18 -8 -3 -15 -17 -15 -31 0 -24 -2 -25
-62 -25 -41 0 -78 -7 -107 -21 -25 -11 -51 -17 -59 -14 -10 4 -12 0 -8 -10 3
-9 1 -15 -7 -14 -6 1 -19 1 -27 0 -12 -1 -12 -3 -2 -10 12 -7 12 -12 0 -32 -7
-13 -15 -26 -18 -29 -3 -3 -6 -14 -6 -25 -5 -62 -19 -121 -31 -128 -9 -6 -10
-13 -3 -27 13 -25 13 -39 -1 -20 -9 12 -10 11 -6 -7 3 -15 -1 -24 -13 -28 -20
-6 -17 -38 5 -65 7 -8 12 -27 11 -42 -1 -16 2 -28 6 -28 4 0 8 -9 8 -20 0 -11
5 -20 10 -20 6 0 10 -13 10 -29 0 -45 19 -53 117 -49 78 3 88 1 87 -14 -1 -10
3 -16 8 -15 6 1 13 -4 16 -12 3 -8 0 -11 -7 -7 -6 4 -11 2 -11 -3 0 -6 7 -11
16 -11 8 0 13 -4 9 -9 -3 -5 -1 -12 4 -15 13 -8 24 -78 13 -85 -5 -3 -12 -19
-16 -36 l-6 -30 15 25 c15 25 15 25 9 -12 -5 -34 -4 -36 15 -31 11 3 19 8 17
12 -2 3 2 12 10 19 9 8 14 9 14 2 0 -6 5 -8 10 -5 6 4 8 14 5 24 -3 10 4 26
15 39 11 11 20 24 20 27 0 14 31 36 41 29 8 -5 9 -3 4 5 -11 19 24 101 43 101
14 0 15 2 3 9 -12 8 -12 13 -3 24 14 16 6 48 -16 61 -11 7 -6 16 26 45 64 59
85 114 81 216 -3 63 -1 85 9 85 6 0 12 4 12 10 0 5 -8 7 -17 4 -10 -3 0 11 22
31 22 20 32 33 23 30 -15 -6 -17 -2 -12 31 6 48 9 51 36 28 23 -19 23 -19 0 7
-13 15 -31 26 -40 25 -11 -1 -16 5 -14 18 2 11 -1 15 -7 11 -6 -3 -11 -1 -11
6 0 7 -3 10 -6 6 -4 -3 -12 -1 -20 6 -47 42 -69 50 -136 51 -30 1 -48 -3 -48
-10z"/>
<path d="M319 983 c-12 -16 -12 -17 1 -7 8 6 22 14 30 17 13 5 12 6 -1 6 -9 1
-23 -7 -30 -16z"/>
<path d="M285 960 c3 -5 11 -10 16 -10 6 0 7 5 4 10 -3 6 -11 10 -16 10 -6 0
-7 -4 -4 -10z"/>
<path d="M556 955 c-3 -8 -1 -15 4 -15 6 0 10 7 10 15 0 8 -2 15 -4 15 -2 0
-6 -7 -10 -15z"/>
<path d="M189 883 c-13 -16 -12 -17 4 -4 9 7 17 15 17 17 0 8 -8 3 -21 -13z"/>
<path d="M161 854 c0 -11 3 -14 6 -6 3 7 2 16 -1 19 -3 4 -6 -2 -5 -13z"/>
<path d="M932 830 c7 -10 14 -18 15 -16 6 6 -9 36 -18 36 -5 0 -4 -9 3 -20z"/>
<path d="M142 810 c0 -14 2 -19 5 -12 2 6 2 18 0 25 -3 6 -5 1 -5 -13z"/>
<path d="M117 793 c-4 -3 -7 -11 -7 -17 0 -6 5 -5 12 2 6 6 9 14 7 17 -3 3 -9
2 -12 -2z"/>
<path d="M970 785 c0 -5 5 -17 10 -25 5 -8 10 -10 10 -5 0 6 -5 17 -10 25 -5
8 -10 11 -10 5z"/>
<path d="M986 723 c-6 -14 -5 -15 5 -6 7 7 10 15 7 18 -3 3 -9 -2 -12 -12z"/>
<path d="M55 628 c-4 -24 -5 -63 -2 -88 3 -38 4 -36 5 18 1 35 7 72 12 82 6
12 6 21 1 25 -5 3 -13 -14 -16 -37z"/>
<path d="M63 465 c-3 -9 -3 -18 -1 -21 3 -3 8 4 11 16 6 23 -1 27 -10 5z"/>
<path d="M1010 431 c0 -7 -4 -9 -10 -6 -5 3 -10 2 -10 -4 0 -5 5 -13 10 -16
11 -7 26 22 16 32 -3 4 -6 1 -6 -6z"/>
<path d="M85 368 c4 -13 11 -27 16 -33 5 -5 4 5 -2 23 -12 36 -24 44 -14 10z"/>
<path d="M135 299 c-4 -6 -5 -12 -2 -15 2 -3 7 2 10 11 7 17 1 20 -8 4z"/>
<path d="M930 260 c-6 -11 -8 -20 -6 -20 3 0 10 9 16 20 6 11 8 20 6 20 -3 0
-10 -9 -16 -20z"/>
<path d="M160 244 c0 -6 17 -26 37 -45 l38 -34 -30 35 c-16 19 -33 39 -37 45
-5 5 -8 5 -8 -1z"/>
<path d="M886 213 c-6 -14 -5 -15 5 -6 7 7 10 15 7 18 -3 3 -9 -2 -12 -12z"/>
<path d="M845 180 c-3 -5 -2 -10 4 -10 5 0 13 5 16 10 3 6 2 10 -4 10 -5 0
-13 -4 -16 -10z"/>
<path d="M622 129 c-14 -22 -7 -25 14 -5 8 8 11 17 6 20 -4 2 -13 -4 -20 -15z"/>
<path d="M780 140 c-9 -6 -10 -10 -3 -10 6 0 15 5 18 10 8 12 4 12 -15 0z"/>
<path d="M745 113 c-31 -7 -40 -21 -11 -16 15 3 29 9 32 14 3 5 4 8 2 8 -2 -1
-12 -3 -23 -6z"/>
<path d="M331 106 c8 -8 79 -35 79 -30 0 3 -16 12 -35 20 -33 14 -53 18 -44
10z"/>
<path d="M627 90 c-9 -11 -13 -20 -7 -20 5 0 14 9 20 20 6 11 9 20 8 20 -2 0
-11 -9 -21 -20z"/>
<path d="M660 90 c0 -5 5 -10 11 -10 5 0 7 5 4 10 -3 6 -8 10 -11 10 -2 0 -4
-4 -4 -10z"/>
</g>
</svg>
